<?xml version="1.0" encoding="UTF-8"?>
<svg width="400" height="300" viewBox="0 0 400 300" fill="none" xmlns="http://www.w3.org/2000/svg">
  <style>
    path, circle, rect, line, polygon {
      stroke: #374151;
    }
    @media (prefers-color-scheme: dark) {
      path, circle, rect, line, polygon {
        stroke: #e5e7eb;
      }
    }
  </style>
  
  <!-- Gas Pump -->
  <rect x="140" y="60" width="120" height="180" rx="10" stroke-width="3" stroke-linecap="round" stroke-linejoin="round" />
  
  <!-- Pump Base -->
  <rect x="130" y="240" width="140" height="20" rx="5" stroke-width="3" stroke-linecap="round" stroke-linejoin="round" />
  
  <!-- Pump Display -->
  <rect x="155" y="80" width="90" height="50" rx="5" stroke-width="3" stroke-linecap="round" stroke-linejoin="round" />
  
  <!-- Pump Handle -->
  <rect x="260" y="140" width="30" height="60" rx="5" stroke-width="3" stroke-linecap="round" stroke-linejoin="round" />
  
  <!-- Nozzle -->
  <path d="M290 160 L340 160 L340 180 L290 180" stroke-width="3" stroke-linecap="round" stroke-linejoin="round" />
  <path d="M340 170 L350 170 L360 160 L360 180 L350 170" stroke-width="3" stroke-linecap="round" stroke-linejoin="round" />
  
  <!-- Hose -->
  <path d="M260 170 C270 170, 280 190, 290 170" stroke-width="3" stroke-linecap="round" stroke-linejoin="round" />

  <!-- Fuel Price Display -->
  <text x="200" y="110" font-family="Arial, sans-serif" font-size="16" font-weight="bold" text-anchor="middle" fill="currentColor">
    ₹95.40
  </text>
  
  <!-- Fuel Type Buttons -->
  <circle cx="175" cy="160" r="15" stroke-width="3" stroke-linecap="round" />
  <text x="175" y="165" font-family="Arial, sans-serif" font-size="10" font-weight="bold" text-anchor="middle" fill="currentColor">
    P
  </text>
  
  <circle cx="225" cy="160" r="15" stroke-width="3" stroke-linecap="round" />
  <text x="225" y="165" font-family="Arial, sans-serif" font-size="10" font-weight="bold" text-anchor="middle" fill="currentColor">
    D
  </text>
  
  <!-- Fuel Droplets -->
  <path d="M80 140 Q90 130, 100 140 Q110 150, 100 160 Q90 170, 80 160 Q70 150, 80 140 Z" stroke-width="3" stroke-linecap="round" stroke-linejoin="round" />
  <path d="M70 180 Q75 175, 80 180 Q85 185, 80 190 Q75 195, 70 190 Q65 185, 70 180 Z" stroke-width="3" stroke-linecap="round" stroke-linejoin="round" />
  <path d="M100 190 Q105 185, 110 190 Q115 195, 110 200 Q105 205, 100 200 Q95 195, 100 190 Z" stroke-width="3" stroke-linecap="round" stroke-linejoin="round" />
  
  <!-- Rupee Symbol -->
  <circle cx="80" cy="80" r="25" stroke-width="3" stroke-linecap="round" />
  <path d="M80 65 L80 95" stroke-width="3" stroke-linecap="round" />
  <path d="M70 70 L90 70" stroke-width="3" stroke-linecap="round" />
  <path d="M70 80 L90 80" stroke-width="3" stroke-linecap="round" />
  <path d="M90 95 L70 80" stroke-width="3" stroke-linecap="round" />
  
  <!-- Credit Card -->
  <rect x="300" y="80" width="40" height="30" rx="3" stroke-width="3" stroke-linecap="round" />
  <line x1="305" y1="90" x2="335" y2="90" stroke-width="3" stroke-linecap="round" />
  <line x1="305" y1="100" x2="320" y2="100" stroke-width="3" stroke-linecap="round" />
  
  <!-- Decorative Lines -->
  <path d="M120 50 Q160 30, 200 50" stroke-width="3" stroke-linecap="round" stroke-dasharray="1 5" />
  <path d="M200 50 Q240 70, 280 50" stroke-width="3" stroke-linecap="round" stroke-dasharray="1 5" />
</svg> 