<?xml version="1.0" encoding="UTF-8"?>
<svg width="400px" height="400px" viewBox="0 0 400 400" version="1.1" xmlns="http://www.w3.org/2000/svg" class="dark:text-white text-gray-900">
    <title>Wrench Doodle</title>
    <style>
        g { stroke: currentColor; }
        @media (prefers-color-scheme: dark) {
            g { stroke: white; }
        }
    </style>
    <g stroke="currentColor" stroke-width="4" fill="none" stroke-linecap="round">
        <!-- Wrench Body -->
        <path d="M150,100 C180,100 200,120 200,150 L200,250 C200,280 220,300 250,300 C280,300 300,280 300,250 C300,220 280,200 250,200 L150,200 C120,200 100,180 100,150 C100,120 120,100 150,100 Z" />
        <!-- Decorative Lines -->
        <path d="M150,130 L150,170" />
        <path d="M250,230 L250,270" />
        <!-- Stars -->
        <path d="M160,140 L170,150 L160,160" />
        <path d="M260,240 L270,250 L260,260" />
    </g>
</svg> 